<svg xmlns="http://www.w3.org/2000/svg" width="25" height="25" viewBox="0 0 25 25"><g transform="translate(-0.001)"><path d="M24.057.944A3.086,3.086,0,0,0,21.8,0H3.208A3.086,3.086,0,0,0,.945.944,3.085,3.085,0,0,0,0,3.206V21.794a3.086,3.086,0,0,0,.944,2.262A3.087,3.087,0,0,0,3.208,25H21.795A3.223,3.223,0,0,0,25,21.794V3.206A3.086,3.086,0,0,0,24.057.944ZM8.978,9.009a4.911,4.911,0,0,1,3.54-1.424,4.932,4.932,0,0,1,3.556,1.424,4.613,4.613,0,0,1,1.473,3.442,4.612,4.612,0,0,1-1.473,3.442,4.93,4.93,0,0,1-3.556,1.425,4.912,4.912,0,0,1-3.54-1.425A4.612,4.612,0,0,1,7.5,12.451,4.613,4.613,0,0,1,8.978,9.009ZM22.169,21.126a.948.948,0,0,1-.293.708.97.97,0,0,1-.7.285H3.777a.973.973,0,0,1-.993-.993V10.579H5.079a7.009,7.009,0,0,0-.325,2.132,7.147,7.147,0,0,0,2.279,5.331,7.605,7.605,0,0,0,5.485,2.205,7.824,7.824,0,0,0,3.907-1.009A7.6,7.6,0,0,0,19.256,16.5,7.212,7.212,0,0,0,20.3,12.711a7.01,7.01,0,0,0-.326-2.132h2.2V21.127h0Zm0-14.535a1.112,1.112,0,0,1-1.123,1.123H18.214a1.111,1.111,0,0,1-1.123-1.123V3.906a1.093,1.093,0,0,1,.325-.789,1.072,1.072,0,0,1,.8-.334h2.832a1.071,1.071,0,0,1,.8.334,1.092,1.092,0,0,1,.326.789Z" transform="translate(0)" fill="#fff"/></g></svg>