<svg xmlns="http://www.w3.org/2000/svg" width="25" height="23.381" viewBox="0 0 25 23.381">
  <g id="phone-call_1_" data-name="phone-call (1)" transform="translate(-0.539 0)">
    <g id="Grupo_38" data-name="Grupo 38" transform="translate(0.539 0)">
      <path id="Caminho_29" data-name="Caminho 29" d="M24.884,17.16l-3.5-3.263a2.4,2.4,0,0,0-3.871.816,2.414,2.414,0,0,1-2.747,1.4c-2.5-.583-5.869-3.613-6.493-6.06a2.092,2.092,0,0,1,1.5-2.564,2.112,2.112,0,0,0,.874-3.613L7.153.612a2.627,2.627,0,0,0-3.371,0L1.409,2.826c-2.372,2.331.25,8.507,6.118,13.984s12.486,8.041,14.984,5.71l2.372-2.214A2.214,2.214,0,0,0,24.884,17.16Z" transform="translate(-0.539 0)" fill="#414144"/>
    </g>
  </g>
</svg>
