<svg id="youtube-logotype" xmlns="http://www.w3.org/2000/svg" width="51.422" height="51.422" viewBox="0 0 51.422 51.422">
  <g id="Grupo_26" data-name="Grupo 26">
    <path id="Caminho_72" data-name="Caminho 72" d="M25.676,50.861h2.046V61.934h1.936V50.861h2.084V49.047H25.676Z" transform="translate(-12.175 -23.277)" fill="#414144"/>
    <path id="Caminho_73" data-name="Caminho 73" d="M53.511,52.214a2.355,2.355,0,0,0-1.8,1.041V49.046h-1.74V61.933h1.74V61a2.372,2.372,0,0,0,1.8,1.063,1.377,1.377,0,0,0,1.39-1.079,7.645,7.645,0,0,0,.176-1.935V55.228A7.376,7.376,0,0,0,54.9,53.3,1.377,1.377,0,0,0,53.511,52.214Zm-.174,6.974c0,.868-.254,1.3-.757,1.3a1.241,1.241,0,0,1-.867-.428V54.2a1.249,1.249,0,0,1,.867-.424c.5,0,.757.445.757,1.31Z" transform="translate(-23.695 -23.277)" fill="#414144"/>
    <path id="Caminho_74" data-name="Caminho 74" d="M40.906,62.606c-.386.545-.751.814-1.1.814-.232,0-.365-.137-.407-.407a5.374,5.374,0,0,1-.016-.676v-7.07h-1.74V62.86a4.9,4.9,0,0,0,.154,1.428A1.069,1.069,0,0,0,38.918,65a2.788,2.788,0,0,0,1.989-1.18v1.048h1.741v-9.6H40.906Z" transform="translate(-17.848 -26.218)" fill="#414144"/>
    <path id="Caminho_75" data-name="Caminho 75" d="M45.9,32.41c.567,0,.838-.449.838-1.347V26.981c0-.9-.272-1.345-.838-1.345s-.839.448-.839,1.345v4.082C45.063,31.961,45.335,32.41,45.9,32.41Z" transform="translate(-21.36 -12.157)" fill="#414144"/>
    <path id="Caminho_76" data-name="Caminho 76" d="M25.711,0A25.711,25.711,0,1,0,51.422,25.711,25.711,25.711,0,0,0,25.711,0Zm2.86,12.026h1.747v7.119a4.126,4.126,0,0,0,.021.681c.038.271.176.41.411.41.35,0,.718-.271,1.107-.82v-7.39h1.752v9.668H31.857V20.64a2.813,2.813,0,0,1-2,1.187,1.076,1.076,0,0,1-1.129-.718,4.886,4.886,0,0,1-.155-1.438V12.026Zm-6.617,3.153A3.757,3.757,0,0,1,22.5,12.9a2.6,2.6,0,0,1,4.084,0,3.8,3.8,0,0,1,.543,2.278v3.386a3.784,3.784,0,0,1-.543,2.274,2.6,2.6,0,0,1-4.084,0,3.745,3.745,0,0,1-.548-2.274ZM17.269,8.72l1.379,5.095L19.973,8.72h1.965L19.6,16.44v5.255H17.659V16.44a31.955,31.955,0,0,0-1.188-4.1c-.409-1.2-.836-2.412-1.245-3.615h2.044ZM39.552,39.487a3.625,3.625,0,0,1-3.1,2.819,96.359,96.359,0,0,1-10.742.4,96.355,96.355,0,0,1-10.742-.4,3.622,3.622,0,0,1-3.1-2.819,30.689,30.689,0,0,1-.5-6.781,30.726,30.726,0,0,1,.506-6.781,3.621,3.621,0,0,1,3.1-2.819,96.367,96.367,0,0,1,10.743-.4,96.358,96.358,0,0,1,10.742.4,3.626,3.626,0,0,1,3.1,2.819,30.785,30.785,0,0,1,.5,6.781A30.69,30.69,0,0,1,39.552,39.487Z" fill="#414144"/>
    <path id="Caminho_77" data-name="Caminho 77" d="M64.826,55.046a2.471,2.471,0,0,0-2.084.984,3.744,3.744,0,0,0-.537,2.262v3.364a3.707,3.707,0,0,0,.559,2.258,2.49,2.49,0,0,0,2.106.984,2.406,2.406,0,0,0,2.1-1.041,2.478,2.478,0,0,0,.407-1.043c.016-.174.037-.56.037-1.121v-.253H65.642a11.4,11.4,0,0,1-.038,1.178.748.748,0,0,1-.778.7c-.6,0-.89-.443-.89-1.332v-1.7h3.48V58.291a3.774,3.774,0,0,0-.539-2.262A2.416,2.416,0,0,0,64.826,55.046Zm.851,3.787h-1.74v-.889q0-1.332.873-1.332c.575,0,.867.445.867,1.332Z" transform="translate(-29.495 -26.113)" fill="#414144"/>
  </g>
</svg>
