<svg xmlns="http://www.w3.org/2000/svg" width="21.973" height="21.872" viewBox="0 0 21.973 21.872">
  <g id="Email" transform="translate(-4 -4.255)">
    <path id="Caminho_22" data-name="Caminho 22" d="M10,17.476l6.564,4.979L18.4,21.065a.392.392,0,0,1,.474,0L20.7,22.454l6.562-4.978V10H10Zm8.632-5.514a3.535,3.535,0,0,1,3.531,3.531v.785a1.175,1.175,0,0,1-2.171.624,1.958,1.958,0,1,1,.6-1.409v.785a.392.392,0,1,0,.785,0v-.785a2.747,2.747,0,1,0-2.747,2.747h1.177a.392.392,0,1,1,0,.785H18.632a3.531,3.531,0,0,1,0-7.063Z" transform="translate(-3.646 -3.491)" fill="#414144"/>
    <circle id="Elipse_1" data-name="Elipse 1" cx="1.177" cy="1.177" r="1.177" transform="translate(13.809 10.825)" fill="#414144"/>
    <path id="Caminho_23" data-name="Caminho 23" d="M4.655,23.458l1.312,1V22.463Z" transform="translate(-0.398 -11.064)" fill="#414144"/>
    <path id="Caminho_24" data-name="Caminho 24" d="M4,39.559l8.269-6.273L4,27.014Z" transform="translate(0 -13.829)" fill="#414144"/>
    <path id="Caminho_25" data-name="Caminho 25" d="M56,24.454l1.312-1-1.312-1Z" transform="translate(-31.597 -11.064)" fill="#414144"/>
    <path id="Caminho_26" data-name="Caminho 26" d="M47.195,27.014l-8.269,6.272,8.269,6.273Z" transform="translate(-21.222 -13.829)" fill="#414144"/>
    <path id="Caminho_27" data-name="Caminho 27" d="M16.185,40.255,5.973,48H26.4Z" transform="translate(-1.199 -21.875)" fill="#414144"/>
    <path id="Caminho_28" data-name="Caminho 28" d="M27.063,5.724h3.874L29,4.255Z" transform="translate(-14.014)" fill="#414144"/>
  </g>
</svg>
