<svg xmlns="http://www.w3.org/2000/svg" width="120" height="99.541" viewBox="0 0 120 99.541"><g transform="translate(319.987 -1308)"><text transform="translate(-259.987 1393.541)" fill="#fe8206" font-size="24" font-family="GloriaHallelujah, Gloria Hallelujah"><tspan x="-59.227" y="0">VIBESURF</tspan></text><g transform="translate(-287.122 1308)"><path d="M6,57.727a.978.978,0,0,0,.978.978H51.985a.978.978,0,1,0,0-1.957H38.747c3.217-2.862,6.814-7.6,11.2-19.3a42.648,42.648,0,0,0,.167-30.429,1.882,1.882,0,0,0-2.561-.949A41.771,41.771,0,0,0,30.672,22.75,44.891,44.891,0,0,0,20.142.618a2.014,2.014,0,0,0-2.845,0A44.993,44.993,0,0,0,6.685,23.246a52.958,52.958,0,0,0-.645,6.767c-.009.434-.04.854-.04,1.3,0,15.036,2.3,20.927,4.775,25.047a4.461,4.461,0,0,0,.269.391H6.978A.978.978,0,0,0,6,57.727ZM48.115,36.759c-4.757,12.692-8.6,16.938-11.723,19.418-.949.747-1.626.572-5.588.572L48.881,9.3a41.229,41.229,0,0,1-.766,27.463ZM47.072,8.549,28.71,56.749H26.4a4.458,4.458,0,0,0,.269-.391c2.479-4.12,4.775-10.011,4.775-25.047,0-1.251-.131-3.661-.3-5.239A40.839,40.839,0,0,1,47.072,8.549ZM8.544,24.035l10.175-7.179,10.175,7.179c.2,1.223.349,2.481.446,3.8l-9.491-6.7a1.957,1.957,0,0,0-2.268,0L8.092,27.836c.1-1.32.256-2.577.452-3.8ZM7.994,30.3l10.725-7.571L29.447,30.3c.064,3.02-.029,5.846-.187,8.23l-9.4-6.634a1.957,1.957,0,0,0-2.268,0L8.176,38.531c-.157-2.381-.251-5.18-.187-8.229Zm.363,10.5,10.362-7.312L29.082,40.8c-.109,1.153-.241,2.212-.386,3.2l-8.84-6.236a1.957,1.957,0,0,0-2.268,0L8.74,44c-.142-.991-.274-2.051-.383-3.2ZM18.719,1.957a42.522,42.522,0,0,1,9.666,19.316l-8.53-6.009a1.957,1.957,0,0,0-2.267,0L9.057,21.282A42.578,42.578,0,0,1,18.719,1.957Zm-6.262,53.4A26.845,26.845,0,0,1,9.111,46.14l9.608-6.78,9.611,6.781a26.844,26.844,0,0,1-3.346,9.214,2.924,2.924,0,0,1-2.5,1.394H14.952a2.924,2.924,0,0,1-2.5-1.394Z" transform="translate(-0.13 -0.029)" fill="#4200fb"/><path d="M.978,59.957H2.935a.978.978,0,1,0,0-1.957H.978a.978.978,0,1,0,0,1.957Z" transform="translate(0 -1.281)" fill="#4200fb"/><path d="M58.935,58H56.978a.978.978,0,0,0,0,1.957h1.957a.978.978,0,1,0,0-1.957Z" transform="translate(-1.209 -1.281)" fill="#4200fb"/></g></g></svg>