<svg xmlns="http://www.w3.org/2000/svg" width="54.723" height="51.807" viewBox="0 0 54.723 51.807">
  <path id="Caminho_79" data-name="Caminho 79" d="M161.444,124.469c-15.092,0-27.366,11.615-27.373,25.892a24.827,24.827,0,0,0,4.184,13.78l.65.98-2.764,9.556,10.355-2.571,1,.561a28.5,28.5,0,0,0,13.926,3.61h.011c15.081,0,27.355-11.616,27.361-25.894a25.058,25.058,0,0,0-8.006-18.319,27.974,27.974,0,0,0-19.343-7.594Zm16.094,37.025c-.686,1.818-3.971,3.478-5.552,3.7a11.9,11.9,0,0,1-5.181-.308,49.288,49.288,0,0,1-4.69-1.64c-8.251-3.372-13.64-11.234-14.051-11.754s-3.359-4.221-3.359-8.053a8.542,8.542,0,0,1,2.879-6.494,3.1,3.1,0,0,1,2.194-.974c.548,0,1.1,0,1.576.027.505.024,1.183-.182,1.851,1.336.686,1.559,2.331,5.39,2.536,5.779a1.369,1.369,0,0,1,.069,1.364,22.268,22.268,0,0,1-2.056,2.662c-.365.428-.841.81-.361,1.589a23.711,23.711,0,0,0,4.576,5.392,22.789,22.789,0,0,0,6.615,3.864c.822.389,1.3.324,1.782-.195s2.056-2.273,2.6-3.053,1.1-.649,1.851-.389,4.8,2.143,5.621,2.532,1.37.585,1.576.91A6.172,6.172,0,0,1,177.538,161.494Zm0,0" transform="translate(-134.071 -124.469)" fill="#414144"/>
</svg>
