<svg xmlns="http://www.w3.org/2000/svg" width="50.32" height="49.192" viewBox="0 0 50.32 49.192"><g transform="translate(-4 -19.55)"><path d="M25.16,0C11.267,0,0,11.014,0,24.6s11.267,24.6,25.16,24.6S50.32,38.178,50.32,24.6,39.053,0,25.16,0Zm.533,38.916h-.006a15.326,15.326,0,0,1-7.2-1.791l-7.983,2.047,2.136-7.626a14.43,14.43,0,0,1-2.01-7.357A14.911,14.911,0,0,1,25.693,9.473a15.139,15.139,0,0,1,10.652,4.316A14.461,14.461,0,0,1,40.752,24.2,14.912,14.912,0,0,1,25.693,38.916Zm0,0" transform="translate(4 19.55)" fill="#060606"/><path d="M145.091,124.469c-6.076,0-11.018,4.409-11.02,9.828a9.046,9.046,0,0,0,1.684,5.231l.262.372-1.113,3.627,4.169-.976.4.213a12.021,12.021,0,0,0,5.607,1.37h0c6.071,0,11.013-4.409,11.016-9.829a9.268,9.268,0,0,0-3.223-6.954,11.644,11.644,0,0,0-7.788-2.883Zm6.479,14.054a3.433,3.433,0,0,1-2.235,1.405,5.073,5.073,0,0,1-2.086-.117c-.481-.136-1.1-.318-1.888-.623a14.239,14.239,0,0,1-5.657-4.462,5.449,5.449,0,0,1-1.352-3.057,3.178,3.178,0,0,1,1.159-2.465,1.288,1.288,0,0,1,.883-.37c.221,0,.442,0,.635.01s.476-.069.745.507c.276.592.938,2.046,1.021,2.194a.494.494,0,0,1,.028.518,8.527,8.527,0,0,1-.828,1.011c-.147.163-.339.307-.145.6a9.142,9.142,0,0,0,1.842,2.047,9.341,9.341,0,0,0,2.663,1.467c.331.148.524.123.717-.074s.828-.863,1.048-1.159.442-.246.745-.148,1.932.813,2.263.961.552.222.634.345A2.219,2.219,0,0,1,151.571,138.523Zm0,0" transform="translate(-115.65 -90.043)" fill="#060606"/></g></svg>