<svg xmlns="http://www.w3.org/2000/svg" width="51.422" height="51.422" viewBox="0 0 51.422 51.422"><path d="M217.08,212.04a5.04,5.04,0,1,1-5.04-5.04A5.04,5.04,0,0,1,217.08,212.04Zm0,0" transform="translate(-186.329 -186.329)" fill="#060606"/><path d="M159.668,138.967a5.007,5.007,0,0,0-2.87-2.87,8.366,8.366,0,0,0-2.807-.52c-1.595-.073-2.073-.088-6.11-.088s-4.516.015-6.11.088a8.371,8.371,0,0,0-2.807.521,5.01,5.01,0,0,0-2.87,2.87,8.369,8.369,0,0,0-.52,2.808c-.073,1.594-.088,2.072-.088,6.11s.016,4.515.088,6.11a8.366,8.366,0,0,0,.52,2.807,5.007,5.007,0,0,0,2.87,2.87,8.356,8.356,0,0,0,2.808.521c1.594.073,2.072.088,6.11.088s4.516-.015,6.11-.088a8.357,8.357,0,0,0,2.808-.521,5.007,5.007,0,0,0,2.87-2.87,8.374,8.374,0,0,0,.521-2.807c.073-1.595.088-2.073.088-6.11s-.015-4.516-.088-6.11A8.355,8.355,0,0,0,159.668,138.967Zm-11.787,16.682a7.764,7.764,0,1,1,7.764-7.764A7.764,7.764,0,0,1,147.881,155.649Zm8.071-14.021a1.814,1.814,0,1,1,1.814-1.814A1.815,1.815,0,0,1,155.952,141.628Zm0,0" transform="translate(-122.17 -122.173)" fill="#060606"/><path d="M25.711,0A25.711,25.711,0,1,0,51.422,25.711,25.714,25.714,0,0,0,25.711,0ZM40.386,31.8a10.832,10.832,0,0,1-.686,3.584A7.549,7.549,0,0,1,35.382,39.7a10.839,10.839,0,0,1-3.583.686c-1.574.072-2.077.089-6.087.089s-4.512-.017-6.087-.089a10.839,10.839,0,0,1-3.583-.686,7.549,7.549,0,0,1-4.318-4.318,10.829,10.829,0,0,1-.686-3.583c-.073-1.575-.089-2.078-.089-6.087s.017-4.512.089-6.087a10.833,10.833,0,0,1,.686-3.584,7.554,7.554,0,0,1,4.318-4.318,10.842,10.842,0,0,1,3.584-.686c1.574-.072,2.077-.089,6.087-.089s4.512.017,6.087.089a10.844,10.844,0,0,1,3.584.685A7.551,7.551,0,0,1,39.7,16.04a10.831,10.831,0,0,1,.687,3.584c.072,1.574.089,2.077.089,6.087S40.458,30.224,40.386,31.8Zm0,0" fill="#060606"/></svg>